<?xml version="1.0" encoding="utf-8"?>
<!-- Generator: Adobe Illustrator 27.2.0, SVG Export Plug-In . SVG Version: 6.00 Build 0)  -->
<svg version="1.1" xmlns="http://www.w3.org/2000/svg" xmlns:xlink="http://www.w3.org/1999/xlink" x="0px" y="0px"
	 viewBox="0 0 815.4 708.66" style="enable-background:new 0 0 815.4 708.66;" xml:space="preserve">
<style type="text/css">
	.st0{fill:#419CC1;}
	.st1{fill:none;}
	.st2{fill:#205878;}
</style>
<g id="Capa_3">
</g>
<g id="Capa_1">
	<path class="st0" d="M-427.33,172.54c-94.98,4.6-128.43,85.02-128.43,85.02s41.11-43.4,98.81-25.28c0,0,3.32-1.79,5.62-15.06
		c0,0,3.06-19.4,6.89-24.51c0,0-47.87,2.81-84.13,35.62c0,0,29.62-42.18,89.74-46.26c0,0,3.71-3.87,6.33-6.03
		C-429.57,173.62-427.33,172.54-427.33,172.54z"/>
	<path class="st0" d="M-386.48,232.54c59.23-20.17,100.85,26.55,100.85,26.55c-31.15-60-80.43-75.57-80.43-75.57
		s3.15,3.57,3.57,9.36c0,0,27.49,8.43,49.02,34.98c0,0-32.26-26.13-48.68-28.34c0,0,1.53,9.96-9.45,19.66
		C-382.57,228.88-386.48,232.54-386.48,232.54z"/>
	<path class="st1" d="M-339.99,425.64c0,0-9.89-17.86-31.27-23.05c3.36-4.11,6.63-8.48,9.73-13.09c0.09,0.04,0.18,0.08,0.27,0.12
		C-336.95,401.13-339.99,425.64-339.99,425.64z"/>
	<path class="st1" d="M-392.1,191.39c0,8.55-4.08,16.72-11.1,18.89c-2.98,0.92-10.47,0.26-10.21-7.15
		c0.25-7.4,10.85-11.74,10.85-11.74s-8.56-3.96-16.34,3.19c-7.79,7.15-6.98,17.02-4.73,23.49c1.32,3.77,3.32,11.28,13.8,17.6
		c0,0-5.91-0.37-11.43-0.37c-5.96,0-13.23,0.64-13.23,0.64c3.7-4,1.03-7.91,2.44-29.33c1.4-21.42,20.81-25.69,20.81-25.69
		S-392.1,177.73-392.1,191.39z"/>
	<path class="st2" d="M-395.93,391.09c0,0-15.68,17.87-25.36,24.51c0,0-33.36-19.4-41.58-50.04c-6.78-25.29,0.82-45.96,11.29-57.7
		c7.59-8.52,21.19-18.64,39.82-10.73c0,0-31.14-2.8-38.04,32.43c-6.89,35.23,28.51,52.85,28.51,52.85S-408.95,389.62-395.93,391.09z
		"/>
	<path class="st2" d="M-351.96,237.26c-15.47-0.97-28.95,2.63-33.74,4.11c-1.22,0.38-2.54,0.21-3.63-0.45
		c-0.83-0.5-1.77-1.07-2.32-1.42c-10.19-6.44,0.96-14.15,14.24-24.88c13.27-10.72,4.85-24.25,4.85-24.25
		c-4.85,14.42-14.94,18.51-14.94,18.51c10.21-11.75,11.23-27.06,11.23-27.06s1.66-4.22-10.21-7.66
		c-11.87-3.45-27.96-2.56-41.36,9.83c-13.4,12.38-12.64,26.29-16.09,40.59c-2.35,9.77-6.03,13.92-8.71,15.84
		c-1.47,1.06-3.35,1.35-5.08,0.8c-4.91-1.57-17.36-4.89-32.29-3.96c-31.12,1.95-75.4,22.58-86.36,92.56
		c-0.26,1.68,1.77,2.71,2.95,1.48c6.38-6.64,21.92-23.61,25.27-12.96c0.39,1.24,2.33,1.04,3.06-0.04
		c4.47-6.67,14.93-22.87,14.15-8.86c-0.06,1.06,1.21,1.67,1.97,0.94c1.14-1.09,2.85-3.09,5.39-6.74
		c6.38-9.19,10.54-10.55,14.8-13.02c5.46-3.15,13.15-9.44,7.28-24.12c0,0-11.1,18.94-26.04,19.04c-5.76,0.04-12.13-0.13-21.32,8.73
		c0,0,16.89-40.03,71.25-36.71l0.1-0.07c-15.18,14.98-24.81,35.98-26.1,59.22c-1.13,20.42,4.43,39.36,13.12,56.12
		c-13.35,8.19-21.83,25.15-24.58,35.11c-7.32,26.56,19.23,40.34,19.23,40.34c-2.48-25.01,27.71-35.3,33-36.91
		c20.74,22.43,41.58,35.72,41.58,35.72s21.54-13,42.59-35.95c5.85,1.85,35.35,12.45,32.9,37.14c0,0,25.25-7.32,19.75-40
		c-1.61-9.56-7.12-21.81-27.45-32.14c9.23-17.29,15.37-37.27,14.57-59.43c-0.85-23.53-10.72-44.75-26.33-59.77l0.87,0.62
		c54.36-3.32,71.25,36.71,71.25,36.71c-9.19-8.86-15.56-8.69-21.32-8.73c-14.94-0.1-26.04-19.04-26.04-19.04
		c-5.87,14.68,1.83,20.97,7.28,24.12c4.26,2.47,8.42,3.83,14.81,13.02c2.54,3.66,4.25,5.66,5.39,6.75c0.76,0.72,2.02,0.13,1.96-0.93
		c-0.79-14.05,9.68,2.17,14.16,8.84c0.72,1.08,2.66,1.28,3.05,0.04c3.35-10.65,18.89,6.32,25.28,12.96c1.17,1.23,3.21,0.2,2.94-1.48
		C-276.56,259.84-320.84,239.21-351.96,237.26z M-432.05,206.61c1.4-21.42,20.81-25.69,20.81-25.69s19.14-3.19,19.14,10.47
		c0,8.55-4.08,16.72-11.1,18.89c-2.98,0.92-10.47,0.26-10.21-7.15c0.25-7.4,10.85-11.74,10.85-11.74s-8.56-3.96-16.34,3.19
		c-7.79,7.15-6.98,17.02-4.73,23.49c1.32,3.77,3.32,11.28,13.8,17.6c0,0-5.91-0.37-11.43-0.37c-5.96,0-13.23,0.64-13.23,0.64
		C-430.79,231.94-433.46,228.03-432.05,206.61z M-501.63,425.64c0,0-5.31-23.19,21.31-35.96c3.12,4.5,6.4,8.8,9.75,12.85
		C-495.6,408.02-501.63,425.64-501.63,425.64z M-421.26,427.71c0,0-25.51-16.57-45.05-43.35c-6.55-12.31-11.49-29.67-9.96-47.06
		c1.71-19.23,14.6-41.19,38.47-50.89c23.87-9.7,46.73,4.6,53.75,18.51c7.02,13.92,3.32,30.26-8.68,37.41
		c-12,7.14-21.58,4.17-26.81-0.9c-4.92-4.76-7.02-17.49,2.42-23.36c9.45-5.87,17.24,3.06,17.24,3.06
		c-0.13-14.98-26.81-19.91-36.64-3.57c-9.2,15.3-3.5,34.35,10.47,46.72c14.75,13.07,30.04,14.24,47.3,19.42
		c0.83,0.25,1.82,0.54,2.9,0.87C-395.42,411.83-421.26,427.71-421.26,427.71z M-339.99,425.64c0,0-9.89-17.86-31.27-23.05
		c3.36-4.11,6.63-8.48,9.73-13.09c0.09,0.04,0.18,0.08,0.27,0.12C-336.95,401.13-339.99,425.64-339.99,425.64z M-354.38,319.86
		c0.68,19.13-4.78,36.3-12.84,51.03c-11.49-2.78-28.63-4.79-33.3-8.22c0,0,19.4-2.48,29.45-22.95c10.04-20.46,2.4-42.44-7.32-53.99
		c-5.66-6.72-27.37-24.27-61.11-14.3c-30.76,9.09-44.09,34.53-48.72,50.44c0.02-0.67,0.04-1.34,0.08-2.01
		c2.03-37.57,29.94-68.12,66.88-68.12S-355.71,282.26-354.38,319.86z"/>
	<path class="st0" d="M-533.46,358.58c14.55-17.02,4.4-24.96-2.04-26.04c-11.16-1.87-12.26,10.72-12.26,10.72
		s-5.76-10.58,4.43-18.89c9.7-7.91,22.13,1.36,22.13,1.36c4.77-20.43,13.7-25.53,13.7-25.53c-10.98,46.98,7.06,69.45,7.06,69.45
		s-1.02,0.17-6.81,6.81c0,0-10.38-15.97-10.72-38.13c0,0-6.72,20,6.47,43.23c0,0-17.02,26.04-9.53,48.51c0,0-35.91-1.19-52.6-10.21
		c0,0,14.64,12.94,54.3,16.85c0,0,3.4,6.64,8.51,10.38c0,0-102.13-8.64-103.53-61.11c0,0-2.38-23.11,13.28-35.23
		c7.91-6.13,24.68-7.91,26.55,8.04c0,0-6.77-7.79-16.72-0.9c-9.96,6.9-8.55,25.79-6.51,31.73c0,0,5.51,26.99,38.04,21.64
		c10.08-1.66,29.68-10.15,25.53-31.91c-1.53-8.04-9.57-17.36-22.34-10.6c-5.6,2.97-8.81,12.38-1.91,25.28
		c0,0-17.42-5.47-13.66-22.85c3.06-14.17,14.41-17.06,21.32-18.26C-541.21,351.26-533.46,358.58-533.46,358.58z"/>
	<path class="st0" d="M-541.34,375.9c-3.52-3.91-10.38-4.3-14.21-0.73c-2.87,2.64-4.09,6.52-3.27,9.79
		c1.98-2.71,4.17-4.44,6.37-5.24c1.95-0.71,3.47-0.57,5.37,0.31c3.64,1.91,5.92,8.83,2.77,13.85c-0.05,0.08-0.11,0.15-0.16,0.22
		c0.42-2.85,0.18-6.96-3.68-9.47c-1.18-0.77-4.05-2.01-6.73,0.23c-1.13,0.95-3.43,3.41-1.56,6.48c0,0,1.93-4.36,4.94-2.64
		c6.09,3.49,0.09,13.62-7.46,15.89c-7.01,1.99-14.84,1.29-21.36-2.25c-12.67-6.77-17.9-24.94-10.52-37.34
		c3.07-5.87,7.82-8.8,13.9-5.07c-9.11-8.98-18.12,3.87-19.83,12.58c-2.62,12.72,2.79,27.12,14.29,33.68
		c11.55,6.74,27.09,4.96,37.11-3.77c3.92-3.41,7.74-9.3,8.09-14.66C-536.98,383.15-538.07,379.49-541.34,375.9z"/>
	<path class="st0" d="M-542.48,348.52c0,0,1.47-7.53,5.74-5.94s4.47,8.81,3.06,13.4c0,0,4.38-5.09,5.28-8.98s0.13-9.98-5.79-11
		c-5.17-0.89-7.51,1.78-8.59,4.07C-543.62,341.84-544.23,344.41-542.48,348.52z"/>
	<path class="st0" d="M-308.8,358.58c-14.55-17.02-4.4-24.96,2.04-26.04c11.16-1.87,12.26,10.72,12.26,10.72s5.76-10.58-4.43-18.89
		c-9.7-7.91-22.13,1.36-22.13,1.36c-4.77-20.43-13.7-25.53-13.7-25.53c10.98,46.98-7.06,69.45-7.06,69.45s1.02,0.17,6.81,6.81
		c0,0,10.38-15.97,10.72-38.13c0,0,6.72,20-6.47,43.23c0,0,17.02,26.04,9.53,48.51c0,0,35.91-1.19,52.6-10.21
		c0,0-14.64,12.94-54.3,16.85c0,0-3.4,6.64-8.51,10.38c0,0,102.13-8.64,103.53-61.11c0,0,2.38-23.11-13.28-35.23
		c-7.91-6.13-24.68-7.91-26.55,8.04c0,0,6.77-7.79,16.72-0.9c9.96,6.9,8.55,25.79,6.51,31.73c0,0-5.51,26.99-38.04,21.64
		c-10.08-1.66-29.68-10.15-25.53-31.91c1.53-8.04,9.57-17.36,22.34-10.6c5.6,2.97,8.81,12.38,1.91,25.28c0,0,17.42-5.47,13.66-22.85
		c-3.06-14.17-14.41-17.06-21.32-18.26C-301.05,351.26-308.8,358.58-308.8,358.58z"/>
	<path class="st0" d="M-300.92,375.9c3.52-3.91,10.38-4.3,14.21-0.73c2.87,2.64,4.09,6.52,3.27,9.79c-1.98-2.71-4.17-4.44-6.37-5.24
		c-1.95-0.71-3.47-0.57-5.37,0.31c-3.64,1.91-5.92,8.83-2.77,13.85c0.05,0.08,0.11,0.15,0.16,0.22c-0.42-2.85-0.18-6.96,3.68-9.47
		c1.18-0.77,4.05-2.01,6.73,0.23c1.13,0.95,3.43,3.41,1.56,6.48c0,0-1.93-4.36-4.94-2.64c-6.09,3.49-0.09,13.62,7.46,15.89
		c7.01,1.99,14.84,1.29,21.36-2.25c12.67-6.77,17.9-24.94,10.52-37.34c-3.07-5.87-7.82-8.8-13.9-5.07
		c9.11-8.98,18.12,3.87,19.83,12.58c2.62,12.72-2.79,27.12-14.29,33.68c-11.55,6.74-27.09,4.96-37.11-3.77
		c-3.92-3.41-7.74-9.3-8.09-14.66C-305.28,383.15-304.19,379.49-300.92,375.9z"/>
	<path class="st0" d="M-299.78,348.52c0,0-1.47-7.53-5.74-5.94c-4.28,1.6-4.47,8.81-3.06,13.4c0,0-4.38-5.09-5.28-8.98
		s-0.13-9.98,5.79-11c5.17-0.89,7.51,1.78,8.59,4.07C-298.64,341.84-298.03,344.41-299.78,348.52z"/>
	<path class="st0" d="M-379.71,418.67c-21.14,22.47-41.57,33.62-41.57,33.62h-0.01c0,0-20.43-11.15-41.57-33.62
		c0,0-29.7,2.13-26.74,35.06c0,0,26.38,4.81,37.43-18.47c0,0,5.96,12.68,1.11,23.06c0,0,21.28,5.53,29.79,0
		c8.51,5.53,29.79,0,29.79,0c-4.85-10.38,1.11-23.06,1.11-23.06c11.04,23.28,37.43,18.47,37.43,18.47
		C-350.01,420.79-379.71,418.67-379.71,418.67z"/>
	<g>
		<path id="SVGID_x5F_1_x5F_" class="st1" d="M-272.35,256.9c34.94,82.09-3.28,176.96-85.37,211.9s-176.96-3.28-211.9-85.37
			c-34.94-82.09,3.28-176.96,85.37-211.9S-307.3,174.81-272.35,256.9z"/>
		<text>		<textPath  xlink:href="#SVGID_x5F_1_x5F_" startOffset="88.965%">
<tspan  class="st2" style="font-family:'DIN-BlackAlternate'; font-size:61px;">COSTA RICA</tspan>		</textPath>
</text>
	</g>
	<g>
		<g>
			<g>
				<path class="st2" d="M-569.24,523.76c-0.91-3.9-1.36-5.87-2.26-9.81c-5.96-0.14-8.94-0.22-14.9-0.37
					c-0.95,4.04-1.42,6.07-2.37,10.16c-4.98-0.01-7.48-0.01-12.46-0.02c5.7-22.63,11.54-45.2,17.56-67.75
					c3.66,0.6,5.5,0.9,9.16,1.47c5.74,22.16,11.65,44.27,17.74,66.34C-561.77,523.77-564.26,523.77-569.24,523.76z M-578.76,482.16
					c-1.73,6.98-2.59,10.5-4.33,17.62c3.37,0.2,5.06,0.3,8.43,0.48C-576.3,493.1-577.12,489.48-578.76,482.16z"/>
				<path class="st2" d="M-517.43,511.81c-0.97,2.61-2.29,4.84-3.96,6.69c-1.67,1.85-3.62,3.29-5.84,4.29
					c-2.22,1.01-4.6,1.52-7.14,1.52c-2.5,0-4.86-0.51-7.08-1.56c-2.23-1.05-4.18-2.56-5.87-4.54c-1.68-1.98-3.01-4.39-3.97-7.22
					c-0.96-2.83-1.44-5.97-1.45-9.41c-0.04-16.41-0.06-24.61-0.1-41.01c4.76,0.64,7.14,0.94,11.9,1.52
					c0.04,15.88,0.06,23.81,0.11,39.69c0.01,2.89,0.58,5.14,1.72,6.73c1.14,1.59,2.71,2.4,4.7,2.45c2,0.05,3.58-0.68,4.76-2.17
					c1.18-1.49,1.76-3.64,1.75-6.47c-0.04-15.5-0.07-23.25-0.11-38.74c4.77,0.52,7.15,0.76,11.92,1.22
					c0.04,15.32,0.07,22.98,0.11,38.3C-515.99,506.3-516.47,509.2-517.43,511.81z"/>
				<path class="st2" d="M-486.09,479.62c0.04,14.74,0.07,29.47,0.11,44.21c-4.77,0-7.15,0-11.91-0.01
					c-0.04-14.96-0.08-29.92-0.12-44.88c-4.77-0.29-7.15-0.45-11.92-0.78c-0.01-5.12-0.02-7.68-0.04-12.81
					c14.31,1.29,21.47,1.8,35.79,2.57c0.01,4.9,0.02,7.35,0.03,12.25C-478.93,479.98-481.32,479.87-486.09,479.62z"/>
				<path class="st2" d="M-442.54,523.85c-0.01-8.67-0.01-13-0.02-21.67c-5.07-0.04-7.61-0.07-12.68-0.14
					c0.01,8.73,0.02,13.09,0.03,21.81c-4.77,0-7.15,0-11.91,0c-0.04-18.52-0.07-37.04-0.11-55.56c4.78,0.22,7.16,0.32,11.94,0.49
					c0.01,8.48,0.02,12.72,0.03,21.19c5.07,0.11,7.61,0.15,12.68,0.22c-0.01-8.42-0.01-12.63-0.02-21.06
					c4.78,0.11,7.17,0.14,11.94,0.19c0.01,18.18,0.02,36.35,0.02,54.53C-435.39,523.85-437.78,523.85-442.54,523.85z"/>
				<path class="st2" d="M-420.82,523.85c0-18.16,0-36.32,0-54.48c13.21,0,19.82-0.11,33.03-0.54c-0.01,4.82-0.01,7.23-0.02,12.05
					c-8.43,0.22-12.65,0.29-21.08,0.37c0,3.65,0,5.47,0,9.12c7.2-0.05,10.8-0.1,18-0.23c-0.01,4.81-0.01,7.22-0.02,12.03
					c-7.2,0.09-10.79,0.12-17.99,0.15c0,3.83,0,5.75,0,9.58c8.42-0.02,12.63-0.04,21.05-0.11c-0.01,4.82-0.01,7.23-0.02,12.05
					C-401.05,523.85-407.64,523.85-420.82,523.85z"/>
				<path class="st2" d="M-351.99,523.83c-6.18-11.43-9.27-17.02-15.46-28.09c-0.02,11.24-0.04,16.86-0.06,28.1
					c-4.77,0-7.15,0-11.91,0c0.03-18.44,0.06-36.88,0.1-55.33c4.18-0.17,6.26-0.27,10.44-0.49c6.2,10.9,9.29,16.4,15.48,27.6
					c0.03-11.41,0.04-17.12,0.07-28.53c4.77-0.32,7.16-0.5,11.93-0.88c-0.05,19.2-0.11,38.4-0.16,57.6
					C-345.74,523.83-347.83,523.83-351.99,523.83z"/>
				<path class="st2" d="M-310.67,476.55c-0.04,15.75-0.09,31.5-0.13,47.26c-4.77,0-7.15,0.01-11.91,0.01
					c0.04-15.43,0.09-30.86,0.13-46.29c-4.77,0.37-7.15,0.54-11.92,0.87c0.01-5.1,0.02-7.65,0.04-12.75
					c14.31-1.24,21.46-1.99,35.74-3.75c-0.01,5.42-0.02,8.14-0.04,13.56C-303.52,475.92-305.9,476.13-310.67,476.55z"/>
				<path class="st2" d="M-291.94,523.78c0.05-20.92,0.1-41.84,0.16-62.76c4.76-0.62,7.14-0.94,11.89-1.62
					c-0.05,21.46-0.09,42.91-0.14,64.37C-284.79,523.78-287.18,523.78-291.94,523.78z"/>
				<path class="st2" d="M-242.58,519.72c-0.91,0.97-1.9,1.79-2.96,2.49c-1.07,0.69-2.25,1.22-3.54,1.57
					c-1.29,0.36-2.74,0.53-4.32,0.53c-2.86,0-5.38-0.66-7.56-1.94c-2.18-1.28-4.15-3.12-5.91-5.51c-1.27-1.72-2.24-3.56-2.92-5.55
					c-0.68-1.98-1.16-4.07-1.45-6.27c-0.29-2.2-0.45-4.48-0.46-6.84c-0.02-2.36-0.03-4.77-0.02-7.23c0-2.45,0.02-4.87,0.05-7.23
					c0.03-2.36,0.19-4.67,0.49-6.91c0.3-2.24,0.79-4.41,1.47-6.5c0.68-2.09,1.66-4.08,2.93-6c1.77-2.67,3.74-4.82,5.91-6.46
					c2.17-1.63,4.68-2.71,7.53-3.19c1.58-0.27,3.02-0.34,4.3-0.21c1.29,0.13,2.46,0.45,3.52,0.95c1.06,0.5,2.04,1.15,2.95,1.95
					c0.9,0.8,1.76,1.73,2.58,2.79c-3.15,5.13-4.72,7.64-7.87,12.57c-0.77-1-1.54-1.81-2.31-2.42c-0.77-0.61-1.83-0.82-3.19-0.63
					c-1.09,0.15-2.01,0.54-2.78,1.18c-0.77,0.64-1.38,1.4-1.84,2.28c-0.27,0.54-0.52,1.14-0.75,1.8c-0.23,0.66-0.42,1.6-0.58,2.82
					c-0.16,1.22-0.29,2.8-0.38,4.73c-0.09,1.94-0.14,4.45-0.15,7.54c0,3.09,0.04,5.6,0.13,7.52c0.09,1.92,0.21,3.48,0.37,4.67
					c0.16,1.19,0.35,2.1,0.57,2.72c0.23,0.62,0.47,1.18,0.75,1.68c0.45,0.81,1.07,1.46,1.83,1.97c0.77,0.51,1.7,0.75,2.79,0.71
					c1.36-0.05,2.43-0.44,3.2-1.18c0.77-0.74,1.54-1.68,2.31-2.82c3.15,4.37,4.73,6.6,7.89,11.15
					C-240.81,517.67-241.68,518.75-242.58,519.72z"/>
			</g>
		</g>
	</g>
	<path class="st0" d="M404.03,145.69c-129.56,6.27-175.18,115.98-175.18,115.98s56.07-59.21,134.78-34.48c0,0,4.53-2.44,7.66-20.55
		c0,0,4.18-26.47,9.4-33.43c0,0-65.3,3.83-114.76,48.59c0,0,40.41-57.54,122.42-63.1c0,0,5.06-5.28,8.63-8.23
		C400.98,147.17,404.03,145.69,404.03,145.69z"/>
	<path class="st0" d="M459.75,227.54c80.8-27.51,137.57,36.22,137.57,36.22c-42.49-81.85-109.71-103.09-109.71-103.09
		s4.3,4.88,4.88,12.77c0,0,37.5,11.49,66.87,47.71c0,0-44-35.64-66.41-38.66c0,0,2.09,13.58-12.89,26.82
		S459.75,227.54,459.75,227.54z"/>
	<path class="st1" d="M523.17,490.95c0,0-13.49-24.36-42.66-31.44c4.58-5.61,9.04-11.57,13.27-17.86c0.12,0.05,0.25,0.11,0.37,0.16
		C527.32,457.51,523.17,490.95,523.17,490.95z"/>
	<path class="st1" d="M452.09,171.41c0,11.66-5.57,22.81-15.14,25.77c-4.06,1.25-14.28,0.35-13.93-9.75
		c0.34-10.09,14.8-16.01,14.8-16.01s-11.68-5.4-22.29,4.35c-10.63,9.75-9.52,23.22-6.45,32.04c1.8,5.14,4.53,15.39,18.82,24.01
		c0,0-8.06-0.5-15.59-0.5c-8.13,0-18.05,0.87-18.05,0.87c5.05-5.46,1.41-10.79,3.33-40.01c1.91-29.22,28.39-35.04,28.39-35.04
		S452.09,152.77,452.09,171.41z"/>
	<path class="st2" d="M446.86,443.82c0,0-21.39,24.38-34.59,33.43c0,0-45.51-26.46-56.72-68.26c-9.25-34.5,1.12-62.69,15.4-78.71
		c10.35-11.62,28.91-25.43,54.32-14.64c0,0-42.48-3.82-51.89,44.24c-9.4,48.06,38.89,72.09,38.89,72.09S429.1,441.81,446.86,443.82z
		"/>
	<path class="st2" d="M506.84,233.98c-21.1-1.32-39.49,3.59-46.02,5.61c-1.66,0.52-3.46,0.29-4.95-0.61
		c-1.13-0.68-2.41-1.46-3.16-1.94c-13.9-8.78,1.31-19.3,19.42-33.94c18.1-14.62,6.62-33.08,6.62-33.08
		c-6.62,19.67-20.38,25.25-20.38,25.25c13.93-16.03,15.32-36.91,15.32-36.91s2.26-5.76-13.93-10.45
		c-16.19-4.71-38.14-3.49-56.42,13.41c-18.28,16.89-17.24,35.86-21.95,55.37c-3.21,13.33-8.23,18.99-11.88,21.61
		c-2.01,1.45-4.57,1.84-6.93,1.09c-6.7-2.14-23.68-6.67-44.05-5.4c-42.45,2.66-102.85,30.8-117.8,126.26
		c-0.35,2.29,2.41,3.7,4.02,2.02c8.7-9.06,29.9-32.21,34.47-17.68c0.53,1.69,3.18,1.42,4.17-0.05c6.1-9.1,20.37-31.2,19.3-12.09
		c-0.08,1.45,1.65,2.28,2.69,1.28c1.55-1.49,3.89-4.21,7.35-9.19c8.7-12.54,14.38-14.39,20.19-17.76c7.45-4.3,17.94-12.88,9.93-32.9
		c0,0-15.14,25.84-35.52,25.97c-7.86,0.05-16.55-0.18-29.08,11.91c0,0,23.04-54.6,97.19-50.08l0.14-0.1
		c-20.71,20.43-33.84,49.08-35.6,80.78c-1.54,27.85,6.04,53.69,17.9,76.55c-18.21,11.17-29.78,34.31-33.53,47.89
		c-9.99,36.23,26.23,55.03,26.23,55.03c-3.38-34.12,37.8-48.15,45.02-50.35c28.29,30.6,56.72,48.73,56.72,48.73
		s29.38-17.73,58.1-49.04c7.98,2.52,48.22,16.98,44.88,50.66c0,0,34.44-9.99,26.94-54.56c-2.2-13.04-9.71-29.75-37.44-43.84
		c12.59-23.59,20.97-50.84,19.88-81.07c-1.16-32.1-14.62-61.04-35.92-81.53l1.19,0.85c74.15-4.53,97.19,50.08,97.19,50.08
		c-12.54-12.09-21.23-11.85-29.08-11.91c-20.38-0.14-35.52-25.97-35.52-25.97c-8.01,20.02,2.5,28.61,9.93,32.9
		c5.81,3.37,11.49,5.22,20.2,17.76c3.46,4.99,5.8,7.72,7.35,9.21c1.04,0.98,2.76,0.18,2.67-1.27c-1.08-19.17,13.2,2.96,19.32,12.06
		c0.98,1.47,3.63,1.75,4.16,0.05c4.57-14.53,25.77,8.62,34.48,17.68c1.6,1.68,4.38,0.27,4.01-2.02
		C609.69,264.78,549.29,236.64,506.84,233.98z M397.59,192.17c1.91-29.22,28.39-35.04,28.39-35.04s26.11-4.35,26.11,14.28
		c0,11.66-5.57,22.81-15.14,25.77c-4.06,1.25-14.28,0.35-13.93-9.75c0.34-10.09,14.8-16.01,14.8-16.01s-11.68-5.4-22.29,4.35
		c-10.63,9.75-9.52,23.22-6.45,32.04c1.8,5.14,4.53,15.39,18.82,24.01c0,0-8.06-0.5-15.59-0.5c-8.13,0-18.05,0.87-18.05,0.87
		C399.31,226.72,395.67,221.39,397.59,192.17z M302.68,490.95c0,0-7.24-31.63,29.07-49.05c4.26,6.14,8.73,12,13.3,17.53
		C310.9,466.91,302.68,490.95,302.68,490.95z M412.31,493.77c0,0-34.8-22.6-61.45-59.13c-8.93-16.79-15.67-40.47-13.59-64.19
		c2.33-26.23,19.92-56.19,52.48-69.42c32.56-13.23,63.74,6.27,73.32,25.25c9.58,18.99,4.53,41.28-11.84,51.03
		c-16.37,9.74-29.44,5.69-36.57-1.23c-6.71-6.49-9.58-23.86,3.3-31.87c12.89-8.01,23.52,4.17,23.52,4.17
		c-0.18-20.43-36.57-27.16-49.98-4.87c-12.55,20.87-4.77,46.86,14.28,63.73c20.12,17.83,40.98,19.42,64.52,26.49
		c1.13,0.34,2.48,0.74,3.96,1.19C447.56,472.11,412.31,493.77,412.31,493.77z M523.17,490.95c0,0-13.49-24.36-42.66-31.44
		c4.58-5.61,9.04-11.57,13.27-17.86c0.12,0.05,0.25,0.11,0.37,0.16C527.32,457.51,523.17,490.95,523.17,490.95z M503.54,346.65
		c0.93,26.1-6.52,49.52-17.52,69.61c-15.67-3.79-39.05-6.53-45.42-11.21c0,0,26.46-3.38,40.17-31.31
		c13.7-27.91,3.27-57.89-9.99-73.65c-7.72-9.17-37.34-33.11-83.36-19.51c-41.96,12.4-60.14,47.1-66.46,68.81
		c0.03-0.91,0.05-1.83,0.11-2.74c2.77-51.25,40.84-92.92,91.23-92.92S501.73,295.36,503.54,346.65z"/>
	<path class="st0" d="M468.99,481.43c-28.84,30.65-56.71,45.86-56.71,45.86h-0.01c0,0-27.87-15.21-56.71-45.86
		c0,0-40.52,2.9-36.48,47.83c0,0,35.99,6.56,51.05-25.19c0,0,8.13,17.3,1.51,31.46c0,0,29.02,7.55,40.63,0
		c11.61,7.55,40.63,0,40.63,0c-6.62-14.16,1.51-31.46,1.51-31.46c15.06,31.75,51.05,25.19,51.05,25.19
		C509.51,484.33,468.99,481.43,468.99,481.43z"/>
	<g>
		<path class="st2" d="M258.89,183.61c-0.15,1.36-0.46,2.72-0.9,4.08c-0.45,1.36-1.09,2.72-1.93,4.09
			c-0.84,1.37-1.91,2.78-3.22,4.21c-2.35,2.58-4.85,4.47-7.48,5.67c-2.63,1.2-5.48,1.87-8.54,2.01c-2.19,0.1-4.24-0.15-6.13-0.75
			c-1.89-0.6-3.7-1.44-5.42-2.52c-1.72-1.08-3.38-2.33-4.97-3.75c-1.6-1.42-3.21-2.87-4.85-4.37s-3.24-2.97-4.8-4.43
			c-1.56-1.46-2.96-3-4.19-4.61c-1.23-1.61-2.23-3.33-3.01-5.16c-0.77-1.83-1.21-3.84-1.31-6.04c-0.14-3.06,0.27-5.95,1.22-8.69
			c0.95-2.73,2.61-5.39,4.96-7.97c1.31-1.44,2.61-2.63,3.9-3.6c1.29-0.96,2.59-1.73,3.9-2.3c1.31-0.57,2.63-0.99,3.98-1.27
			s2.72-0.45,4.13-0.52l0.63,13.64c-1.33,0.06-2.54,0.24-3.63,0.52c-1.09,0.29-2.19,1.04-3.31,2.27c-0.9,0.98-1.49,1.98-1.78,3
			c-0.29,1.02-0.35,1.97-0.19,2.86c0.1,0.55,0.27,1.11,0.49,1.69c0.22,0.58,0.66,1.3,1.31,2.15c0.65,0.85,1.56,1.89,2.73,3.11
			c1.18,1.22,2.77,2.75,4.78,4.58c2.01,1.83,3.68,3.28,5,4.33c1.33,1.06,2.44,1.87,3.35,2.44c0.91,0.57,1.66,0.94,2.26,1.1
			c0.6,0.17,1.17,0.28,1.72,0.33c0.91,0.08,1.85-0.07,2.84-0.45c0.98-0.38,1.92-1.06,2.82-2.04c1.12-1.23,1.78-2.4,1.96-3.51
			c0.19-1.11,0.25-2.33,0.19-3.66l13.64-0.63C259.09,180.86,259.04,182.25,258.89,183.61z"/>
		<path class="st2" d="M282.64,132.36c1.31,1.79,2.59,3.55,3.83,5.29c1.24,1.74,2.31,3.52,3.2,5.34c0.89,1.82,1.54,3.71,1.93,5.65
			c0.4,1.95,0.43,4,0.1,6.17c-0.46,3.02-1.41,5.77-2.83,8.23c-1.43,2.46-3.62,4.78-6.57,6.94c-2.95,2.17-5.81,3.57-8.59,4.19
			c-2.77,0.63-5.67,0.71-8.7,0.25c-2.17-0.33-4.13-0.98-5.87-1.94s-3.34-2.14-4.82-3.53c-1.47-1.4-2.85-2.94-4.14-4.65
			c-1.29-1.7-2.59-3.45-3.9-5.24c-1.31-1.79-2.59-3.55-3.83-5.29c-1.24-1.74-2.31-3.52-3.2-5.34c-0.89-1.82-1.54-3.71-1.93-5.65
			c-0.4-1.94-0.43-4-0.1-6.18c0.46-3.02,1.41-5.77,2.83-8.23c1.43-2.46,3.62-4.78,6.57-6.94c2.95-2.17,5.81-3.56,8.59-4.19
			c2.77-0.63,5.67-0.71,8.7-0.25c2.17,0.33,4.13,0.98,5.86,1.94c1.74,0.96,3.34,2.14,4.82,3.53c1.47,1.4,2.85,2.95,4.14,4.65
			C280.02,128.82,281.32,130.57,282.64,132.36z M270.9,140.98c-1.61-2.19-2.96-3.93-4.05-5.23c-1.09-1.3-2.01-2.31-2.75-3.04
			c-0.74-0.73-1.39-1.23-1.94-1.52c-0.55-0.28-1.09-0.5-1.62-0.67c-0.87-0.25-1.86-0.29-2.96-0.1c-1.1,0.19-2.19,0.68-3.26,1.47
			c-1.07,0.79-1.86,1.68-2.37,2.67c-0.51,0.99-0.77,1.95-0.79,2.86c0,0.55,0.04,1.14,0.15,1.75c0.1,0.61,0.39,1.38,0.87,2.31
			c0.47,0.93,1.17,2.1,2.08,3.53c0.91,1.43,2.17,3.24,3.78,5.43c1.61,2.19,2.95,3.92,4.03,5.2c1.07,1.28,1.98,2.28,2.72,3.01
			c0.74,0.73,1.39,1.23,1.94,1.52c0.55,0.28,1.09,0.5,1.62,0.66c0.88,0.25,1.87,0.3,2.99,0.13c1.12-0.17,2.21-0.64,3.29-1.43
			c1.07-0.79,1.86-1.69,2.35-2.71c0.49-1.02,0.75-1.98,0.77-2.89c0-0.56-0.04-1.14-0.15-1.75c-0.1-0.61-0.39-1.38-0.87-2.3
			c-0.47-0.93-1.16-2.09-2.05-3.5C273.76,144.97,272.51,143.17,270.9,140.98z"/>
		<path class="st2" d="M335.61,120.29c1.22,2.74,1.75,5.43,1.58,8.06s-0.88,5.09-2.13,7.38c-1.26,2.29-2.99,4.37-5.19,6.24
			c-2.21,1.86-4.73,3.43-7.57,4.69c-4.16,1.85-8.15,3.04-11.99,3.56c-3.84,0.52-7.74,0-11.72-1.57l4.73-12.3
			c2.05,0.79,4.31,0.96,6.79,0.53c2.48-0.43,4.81-1.14,6.99-2.11c5.17-2.3,7.03-5.07,5.59-8.32c-0.61-1.37-1.44-2.27-2.49-2.72
			c-1.1-0.42-2.5-0.37-4.21,0.15l-6.94,2c-5.13,1.43-9.46,1.45-13,0.05c-3.61-1.43-6.46-4.5-8.56-9.21
			c-1.1-2.48-1.66-4.97-1.68-7.45c-0.01-2.48,0.49-4.86,1.51-7.14s2.56-4.38,4.61-6.33c2.05-1.94,4.62-3.6,7.71-4.98
			c3.9-1.74,7.55-2.77,10.96-3.11c3.4-0.34,6.78,0.13,10.15,1.41l-4.66,12.05c-1.25-0.48-2.45-0.72-3.6-0.72
			c-1.15,0-2.23,0.1-3.24,0.3c-1,0.2-1.91,0.49-2.72,0.85c-0.81,0.36-1.52,0.68-2.13,0.95c-1.17,0.52-2.09,1.11-2.76,1.78
			c-0.68,0.67-1.17,1.36-1.49,2.08c-0.32,0.72-0.47,1.43-0.47,2.12c0.01,0.7,0.15,1.35,0.42,1.96c0.16,0.36,0.42,0.73,0.77,1.12
			s0.83,0.7,1.41,0.92c0.51,0.2,1.13,0.32,1.85,0.36c0.72,0.04,1.58-0.1,2.59-0.42l6.95-2c5.06-1.46,9.27-1.54,12.64-0.24
			c2.1,0.77,3.9,2.01,5.39,3.72C333.17,115.62,334.48,117.75,335.61,120.29z"/>
		<path class="st2" d="M364.97,84.6l9.56,45.27l-14.25,3.01l-9.56-45.27l-14.25,3.01l-2.68-12.7l42.74-9.02l2.68,12.7L364.97,84.6z"
			/>
		<path class="st2" d="M422.68,126.56l-2.82-8.8l-18.22,0.15l-2.84,8.85l-15.23,0.13l21.05-59.42l11.23-0.09l22.05,59.06
			L422.68,126.56z M410.81,89.88l-5.19,15.85l10.32-0.09L410.81,89.88z"/>
		<path class="st2" d="M486.52,139.26l-3.45-24.17l-4.69-1.46l-6.56,21.05l-13.9-4.33l17.62-56.57l22.4,6.98
			c3.12,0.97,5.73,2.35,7.82,4.13c2.09,1.78,3.69,3.78,4.8,5.99c1.11,2.21,1.74,4.52,1.89,6.95c0.14,2.43-0.15,4.81-0.87,7.14
			c-0.59,1.91-1.4,3.57-2.43,5c-1.03,1.42-2.16,2.61-3.42,3.55c-1.25,0.95-2.57,1.68-3.96,2.21c-1.38,0.53-2.72,0.91-4.02,1.15
			l4.89,27.41L486.52,139.26z M497.68,100.64c0.46-1.48,0.34-2.97-0.35-4.47c-0.7-1.49-2-2.54-3.9-3.13l-7.87-2.45l-3.56,11.44
			l7.87,2.45c1.91,0.59,3.57,0.47,4.99-0.36C496.28,103.29,497.22,102.13,497.68,100.64z"/>
		<path class="st2" d="M506.73,147.65l27-52.74l12.96,6.64l-27,52.74L506.73,147.65z"/>
		<path class="st2" d="M557.8,175.88c-1.37,0-2.75-0.14-4.15-0.44c-1.4-0.29-2.83-0.78-4.29-1.46s-2.98-1.59-4.55-2.73
			c-2.83-2.05-4.99-4.31-6.48-6.8c-1.49-2.48-2.48-5.23-2.96-8.25c-0.35-2.17-0.33-4.23,0.05-6.18c0.38-1.95,1.01-3.84,1.89-5.67
			c0.88-1.83,1.93-3.62,3.16-5.36c1.23-1.75,2.49-3.52,3.79-5.32s2.59-3.55,3.86-5.27c1.27-1.71,2.64-3.28,4.11-4.68
			c1.46-1.41,3.06-2.6,4.79-3.57s3.68-1.63,5.85-1.98c3.02-0.48,5.94-0.41,8.77,0.23c2.82,0.64,5.65,1.98,8.48,4.03
			c1.57,1.14,2.91,2.29,4.01,3.47c1.1,1.17,2.01,2.38,2.73,3.62c0.71,1.24,1.28,2.51,1.71,3.81c0.43,1.3,0.75,2.65,0.98,4.04
			l-13.48,2.16c-0.21-1.32-0.52-2.5-0.93-3.54c-0.41-1.05-1.29-2.06-2.63-3.03c-1.08-0.78-2.14-1.26-3.18-1.43
			c-1.04-0.17-2-0.13-2.87,0.13c-0.53,0.17-1.07,0.39-1.62,0.68s-1.21,0.8-1.99,1.54c-0.78,0.74-1.7,1.76-2.79,3.07
			c-1.08,1.31-2.42,3.06-4.01,5.26c-1.59,2.2-2.84,4.02-3.74,5.46c-0.9,1.44-1.58,2.64-2.04,3.61c-0.46,0.97-0.74,1.76-0.84,2.37
			c-0.1,0.61-0.15,1.2-0.14,1.75c0.03,0.91,0.28,1.83,0.77,2.77c0.49,0.93,1.27,1.79,2.35,2.57c1.35,0.98,2.58,1.49,3.7,1.55
			c1.12,0.06,2.34-0.02,3.66-0.23l2.16,13.48C560.55,175.76,559.17,175.88,557.8,175.88z"/>
		<path class="st2" d="M584.31,208.25l4.71-7.95l-12.21-13.53l-8.5,3.75l-10.2-11.31l58.42-23.69l7.53,8.34l-29.54,55.69
			L584.31,208.25z M603.87,175.03l-15.3,6.64l6.91,7.66L603.87,175.03z"/>
	</g>
	<g>
		<path class="st2" d="M210.45,624.79c-1.24-5.33-1.85-8-3.09-13.38c-8.13-0.19-12.2-0.29-20.33-0.51
			c-1.29,5.51-1.94,8.28-3.24,13.85c-6.8-0.01-10.2-0.01-16.99-0.03c7.75-30.87,15.72-61.67,23.95-92.42c5,0.83,7.5,1.23,12.5,2
			c7.81,30.23,15.81,60.41,24.2,90.49C220.65,624.8,217.25,624.8,210.45,624.79z M197.47,568.05c-2.36,9.52-3.54,14.32-5.9,24.04
			c4.6,0.27,6.9,0.4,11.5,0.66C200.82,582.96,199.7,578.02,197.47,568.05z"/>
		<path class="st2" d="M281.13,608.48c-1.32,3.56-3.12,6.6-5.41,9.13c-2.28,2.53-4.94,4.48-7.97,5.86
			c-3.03,1.38-6.28,2.07-9.75,2.07c-3.41,0-6.63-0.7-9.66-2.13c-3.04-1.43-5.71-3.49-8-6.19c-2.3-2.7-4.1-5.99-5.41-9.85
			c-1.31-3.86-1.97-8.15-1.98-12.83c-0.04-18.65-0.09-37.3-0.13-55.95c6.49,0.87,9.74,1.28,16.23,2.07
			c0.05,18.05,0.1,36.1,0.14,54.14c0.01,3.94,0.79,7.01,2.35,9.17c1.55,2.17,3.69,3.28,6.42,3.34c2.72,0.07,4.89-0.93,6.49-2.97
			c1.6-2.04,2.4-4.97,2.39-8.82c-0.05-17.62-0.1-35.23-0.15-52.85c6.5,0.7,9.75,1.04,16.25,1.66c0.05,17.41,0.1,34.83,0.15,52.24
			C283.1,600.97,282.45,604.92,281.13,608.48z"/>
		<path class="st2" d="M323.88,564.58c0.05,20.1,0.1,40.21,0.15,60.31c-6.5,0-9.75-0.01-16.25-0.01
			c-0.06-20.41-0.11-40.81-0.17-61.22c-6.51-0.4-9.76-0.61-16.26-1.07c-0.02-6.99-0.03-10.48-0.05-17.47
			c16.28,1.36,32.52,2.53,48.82,3.51c0.01,6.68,0.02,10.03,0.04,16.71C333.65,565.07,330.39,564.92,323.88,564.58z"/>
		<path class="st2" d="M383.28,624.91c-0.01-11.83-0.02-17.74-0.03-29.56c-6.92-0.06-10.37-0.1-17.29-0.2
			c0.02,11.9,0.03,17.85,0.04,29.76c-6.5,0-9.75,0-16.25-0.01c-0.05-25.26-0.1-50.53-0.15-75.79c6.51,0.31,9.77,0.44,16.29,0.67
			c0.02,11.56,0.03,17.35,0.04,28.91c6.92,0.15,10.38,0.21,17.3,0.3c-0.01-11.49-0.02-17.23-0.03-28.72
			c6.52,0.14,9.78,0.2,16.29,0.26c0.01,24.79,0.02,49.59,0.03,74.38C393.04,624.92,389.79,624.92,383.28,624.91z"/>
		<path class="st2" d="M412.91,624.92c0-24.77,0-49.54,0-74.31c15.01,0.03,30.06-0.22,45.06-0.74c-0.01,6.58-0.01,9.87-0.02,16.44
			c-11.5,0.3-17.25,0.4-28.75,0.5c0,4.97,0,7.46-0.01,12.44c9.82-0.07,14.73-0.13,24.55-0.32c-0.01,6.57-0.01,9.85-0.02,16.41
			c-9.82,0.12-14.72,0.16-24.54,0.2c0,5.23,0,7.84-0.01,13.06c11.49-0.03,17.23-0.06,28.71-0.15c-0.01,6.58-0.01,9.87-0.02,16.44
			C442.88,624.91,427.89,624.92,412.91,624.92z"/>
		<path class="st2" d="M506.8,624.89c-6.93-12.83-13.97-25.6-21.09-38.32c-0.03,15.33-0.05,23-0.08,38.33c-6.5,0-9.75,0-16.25,0.01
			c0.04-25.16,0.09-50.31,0.13-75.47c5.7-0.24,8.54-0.37,14.24-0.67c7.12,12.5,14.16,25.05,21.11,37.64
			c0.04-15.57,0.06-23.35,0.1-38.91c6.51-0.44,9.77-0.68,16.27-1.2c-0.07,26.19-0.14,52.39-0.22,78.58
			C515.33,624.88,512.49,624.89,506.8,624.89z"/>
		<path class="st2" d="M563.17,560.39c-0.06,21.49-0.12,42.97-0.18,64.46c-6.5,0.01-9.75,0.01-16.25,0.01
			c0.06-21.05,0.12-42.09,0.18-63.14c-6.5,0.5-9.75,0.74-16.26,1.18c0.02-6.96,0.03-10.43,0.05-17.39
			c16.29-1.52,32.51-3.22,48.76-5.11c-0.02,7.4-0.03,11.1-0.05,18.5C572.92,559.52,569.67,559.82,563.17,560.39z"/>
		<path class="st2" d="M588.72,624.82c0.07-28.54,0.14-57.08,0.21-85.62c6.49-0.84,9.74-1.29,16.23-2.21
			c-0.06,29.27-0.12,58.54-0.19,87.81C598.47,624.81,595.22,624.81,588.72,624.82z"/>
		<path class="st2" d="M656.05,619.28c-1.24,1.32-2.59,2.45-4.04,3.39c-1.46,0.94-3.07,1.66-4.83,2.15
			c-1.76,0.49-3.73,0.73-5.9,0.73c-3.9,0-7.34-0.89-10.31-2.64c-2.97-1.75-5.66-4.26-8.07-7.52c-1.73-2.34-3.06-4.86-3.98-7.56
			c-0.92-2.7-1.58-5.55-1.98-8.56c-0.4-3-0.61-6.11-0.63-9.33c-0.02-3.22-0.03-6.51-0.03-9.86c0.01-3.35,0.03-6.64,0.06-9.86
			c0.04-3.23,0.26-6.37,0.67-9.43c0.41-3.06,1.08-6.01,2.01-8.86c0.93-2.85,2.26-5.57,4-8.18c2.41-3.64,5.1-6.58,8.07-8.81
			s6.39-3.69,10.27-4.36c2.16-0.37,4.12-0.47,5.87-0.29c1.76,0.18,3.36,0.61,4.81,1.3c1.45,0.68,2.79,1.57,4.02,2.66
			c1.23,1.09,2.4,2.36,3.51,3.81c-4.29,7-6.44,10.43-10.74,17.15c-1.05-1.37-2.1-2.47-3.15-3.3c-1.05-0.83-2.5-1.11-4.35-0.87
			c-1.48,0.2-2.75,0.74-3.8,1.61c-1.05,0.87-1.89,1.91-2.5,3.11c-0.37,0.74-0.71,1.56-1.02,2.46c-0.31,0.9-0.57,2.18-0.79,3.84
			c-0.22,1.66-0.39,3.81-0.52,6.45c-0.13,2.64-0.19,6.07-0.2,10.29c-0.01,4.22,0.05,7.64,0.17,10.26c0.12,2.62,0.29,4.74,0.5,6.37
			c0.21,1.63,0.48,2.87,0.78,3.71c0.31,0.85,0.65,1.61,1.02,2.29c0.62,1.1,1.45,2,2.5,2.69c1.05,0.7,2.32,1.02,3.8,0.97
			c1.86-0.07,3.31-0.6,4.36-1.62c1.05-1.01,2.1-2.29,3.16-3.85c4.3,5.97,6.45,9.01,10.76,15.21
			C658.46,616.48,657.28,617.96,656.05,619.28z"/>
	</g>
</g>
<g id="Capa_2">
</g>
</svg>
